<svg width="360" height="71" viewBox="0 0 360 71" fill="none" xmlns="http://www.w3.org/2000/svg">
<path d="M25.9717 39.1349C23.6916 41.613 20.4517 43.0341 17.0758 43.0341C10.4275 43.0341 5.01961 37.6531 5.01961 31.0375C5.01961 24.4218 10.4275 19.0387 17.0758 19.0387C20.4345 19.0387 23.6658 20.4489 25.9416 22.9076C26.8884 23.9322 28.4761 23.982 29.4899 23.0376C30.5039 22.0887 30.562 20.4944 29.6194 19.4741C26.3944 15.9951 21.8235 14 17.0758 14C7.65993 14 0 21.6447 0 31.0397C0 40.4347 7.65993 48.0772 17.0758 48.0772C21.8452 48.0772 26.4312 46.0647 29.6604 42.5554C30.6009 41.5329 30.5362 39.9386 29.518 38.9942C28.5019 38.0497 26.9101 38.1081 25.9717 39.1349Z" fill="#9CE047"/>
<path d="M145.392 23.679C144.005 23.679 142.881 24.8076 142.881 26.2005V45.558C142.881 46.9508 144.005 48.0794 145.392 48.0794C146.779 48.0794 147.903 46.9508 147.903 45.558V26.1983C147.901 24.8076 146.777 23.679 145.392 23.679Z" fill="#363636"/>
<path d="M143.61 15.9413C143.157 16.42 142.883 17.0504 142.883 17.7306C142.883 18.4108 143.159 19.0412 143.61 19.5199C144.086 19.9748 144.738 20.2499 145.392 20.2499C146.043 20.2499 146.697 19.9727 147.173 19.5199C147.624 19.0412 147.9 18.3848 147.9 17.7306C147.9 17.0742 147.624 16.42 147.173 15.9413C146.218 15.0098 144.537 15.0098 143.61 15.9413Z" fill="#363636"/>
<path d="M171.193 40.5648C170.175 39.6225 168.587 39.6809 167.646 40.7078C166.285 42.1874 164.348 43.0365 162.331 43.0365C158.36 43.0365 155.131 39.8262 155.131 35.8792C155.131 31.9301 158.362 28.7198 162.331 28.7198C164.367 28.7198 166.248 29.5408 167.629 31.0333C168.576 32.0559 170.161 32.1122 171.177 31.1633C172.191 30.2145 172.249 28.6201 171.307 27.5998C168.999 25.1087 165.729 23.679 162.333 23.679C155.594 23.679 150.113 29.153 150.113 35.8792C150.113 42.6054 155.594 48.0774 162.333 48.0774C165.746 48.0774 169.027 46.6368 171.337 44.126C172.273 43.1037 172.211 41.5092 171.193 40.5648Z" fill="#363636"/>
<path d="M140.671 26.1983C140.671 24.8054 139.547 23.6768 138.16 23.6768H129.124C129.079 23.6768 129.042 23.7006 128.999 23.7028C128.214 23.6746 127.418 23.7006 126.617 23.8241C121.462 24.6169 117.309 28.7869 116.52 33.9643C115.922 37.8852 117.165 41.7259 119.932 44.5031C120.588 45.1615 121.315 45.7096 122.077 46.1927C121.505 47.1156 121.192 48.1488 121.192 49.1864C121.192 50.1179 121.453 51.0408 121.915 51.8899C118.587 53.6358 116.373 56.647 116.373 60.0761C116.373 65.4678 121.822 69.8546 128.52 69.8546C135.218 69.8546 140.669 65.4678 140.669 60.0761C140.669 54.6822 135.218 50.2955 128.52 50.2955C127.204 50.2955 126.212 49.8189 126.212 49.1864C126.212 48.5561 127.198 48.0816 128.507 48.0794C129.141 48.0794 129.782 48.0319 130.425 47.9322C135.58 47.1392 139.733 42.9692 140.522 37.7919C141.023 34.508 140.216 31.2846 138.315 28.6894C139.627 28.6028 140.671 27.5348 140.671 26.1983ZM128.522 55.3363C132.386 55.3363 135.652 57.507 135.652 60.0761C135.652 62.6453 132.386 64.8137 128.522 64.8137C124.659 64.8137 121.395 62.643 121.395 60.0761C121.395 57.5091 124.659 55.3363 128.522 55.3363ZM135.563 37.0272C135.108 40.0037 132.629 42.4927 129.668 42.9497C127.357 43.3029 125.107 42.5728 123.483 40.9418C121.859 39.3105 121.13 37.0468 121.484 34.731C121.939 31.7568 124.417 29.2657 127.379 28.8107C127.761 28.7523 128.14 28.7241 128.518 28.7241C130.414 28.7241 132.209 29.4585 133.563 30.821C135.188 32.4479 135.917 34.7094 135.563 37.0272Z" fill="#363636"/>
<path d="M110.608 27.2534C107.842 24.4763 104.016 23.2198 100.116 23.8264C94.9601 24.6192 90.8077 28.7892 90.018 33.9665C89.4205 37.8874 90.663 41.7282 93.4307 44.5053C95.741 46.8274 98.789 48.0795 102.007 48.0795C102.642 48.0795 103.282 48.0319 103.925 47.9324C105.862 47.6355 107.657 46.8601 109.184 45.7336C109.279 47.0399 110.334 48.0775 111.658 48.0775C113.045 48.0775 114.169 46.9489 114.169 45.556V36.2584C114.169 36.2389 114.158 36.2216 114.158 36.2021C114.247 32.8509 113 29.6536 110.608 27.2534ZM109.059 37.0274C108.604 40.0039 106.125 42.4951 103.164 42.9499C100.855 43.3031 98.6056 42.573 96.9792 40.9418C95.3548 39.3107 94.6257 37.0469 94.9795 34.7312C95.4346 31.757 97.9131 29.2658 100.875 28.8109C103.187 28.4621 105.435 29.1878 107.059 30.819C108.684 32.4481 109.413 34.7096 109.059 37.0274Z" fill="#363636"/>
<path d="M85.6464 14.0501C84.473 13.814 83.2974 14.4422 82.838 15.5513L73.1071 39.003L63.3743 15.5513C62.9169 14.4422 61.7434 13.8118 60.5657 14.0501C59.3921 14.2862 58.5488 15.3195 58.5488 16.5218V45.5581C58.5488 46.951 59.6727 48.0796 61.0597 48.0796C62.4467 48.0796 63.5705 46.951 63.5705 45.5581V29.1228L70.7925 46.5285C71.1829 47.4664 72.0954 48.0796 73.1093 48.0796C74.1231 48.0796 75.0355 47.4687 75.426 46.5285L82.6459 29.1249V45.5581C82.6459 46.951 83.7697 48.0796 85.1569 48.0796C86.5439 48.0796 87.6677 46.951 87.6677 45.5581V16.5196C87.6634 15.3195 86.8199 14.284 85.6464 14.0501Z" fill="#363636"/>
<path d="M52.0261 27.7222C49.2268 24.9111 45.3553 23.6392 41.4053 24.2554C36.1864 25.058 31.9831 29.2791 31.1838 34.52C30.5791 38.489 31.8367 42.3769 34.6383 45.188C36.977 47.5387 40.0623 48.8061 43.3203 48.8061C43.9622 48.8061 44.6107 48.758 45.2615 48.6571C50.4802 47.8567 54.6837 43.6333 55.4828 38.3924C56.0877 34.4212 54.8256 30.5334 52.0261 27.7222ZM50.4606 37.6162C49.9998 40.6291 47.4887 43.1509 44.4906 43.6114C42.1564 43.9687 39.8767 43.2298 38.2303 41.5785C36.586 39.9274 35.848 37.6359 36.2061 35.2918C36.6668 32.2812 39.1758 29.7594 42.1739 29.2989C44.5169 28.9458 46.7878 29.6804 48.4342 31.3317C50.0784 32.9805 50.8164 35.2721 50.4606 37.6162Z" fill="#9CE047"/>
<g clip-path="url(#clip0_3452_22)">
<mask id="mask0_3452_22" style="mask-type:luminance" maskUnits="userSpaceOnUse" x="222" y="0" width="138" height="48">
<path d="M360 0H222V48H360V0Z" fill="white"/>
</mask>
<g mask="url(#mask0_3452_22)">
<path fill-rule="evenodd" clip-rule="evenodd" d="M269.062 0C267.886 0 266.737 0.343598 265.76 0.987334C264.782 1.63107 264.02 2.54607 263.57 3.61657C263.12 4.68708 263.002 5.86502 263.232 7.00146C263.461 8.13791 264.027 9.1818 264.859 10.0011C265.69 10.8205 266.749 11.3784 267.902 11.6044C269.056 11.8305 270.251 11.7145 271.337 11.2711C272.423 10.8276 273.352 10.0767 274.005 9.11331C274.658 8.14991 275.007 7.01724 275.007 5.85854C275.007 4.30474 274.381 2.81462 273.266 1.71592C272.151 0.617238 270.639 0 269.062 0ZM316.405 29.1251C322.345 22.6053 326.928 17.5749 335.544 17.5749C349.316 17.5749 356.35 34.0471 358.728 47.5216H348.473C345.421 34.1056 340.815 27.1632 335.415 27.1632C331.798 27.1632 329.721 29.4144 325.605 33.8762L325.602 33.8802C325.063 34.4642 324.489 35.0863 323.873 35.7461C323.489 36.1558 323.101 36.5775 322.705 37.0065C318.107 41.9978 312.576 48.0002 304.265 48.0002C290.146 48.0002 284.291 32.7875 282.616 18.024H292.851C295.08 32.4751 299.459 38.3336 304.413 38.3336C308.003 38.3336 311.328 34.6901 315.714 29.8819L316.253 29.2918L316.405 29.1251ZM235.97 39.271H243.47L243.45 18.0632H253.21V47.5707H235.94C227.747 47.551 222.238 41.6634 222 33.6859V18.0632H231.759V34.4573C231.759 37.4256 232.998 39.271 235.97 39.271ZM274.174 47.5218H263.949L263.93 18.0632H274.174V47.5218Z" fill="#0000AA"/>
</g>
</g>
<line opacity="0.3" x1="197.5" y1="18" x2="197.5" y2="49" stroke="black"/>
<defs>
<clipPath id="clip0_3452_22">
<rect width="138" height="48" fill="white" transform="translate(222)"/>
</clipPath>
</defs>
</svg>
